<svg width="108" height="18" xmlns="http://www.w3.org/2000/svg" preserveAspectRatio="xMidYMid meet">

 <g>
  <title>background</title>
  <rect fill="none" id="canvas_background" height="19" width="102" y="-1" x="-1"/>
 </g>
 <g>
  <title>Layer 1</title>
  <g id="svg_1" fill="#000000" transform="translate(0,74) scale(0.10000000149011612,-0.10000000149011612) ">
   <path id="svg_2" d="m16,693c-3,-21 -9,-48 -12,-60c-5,-17 -2,-23 9,-23c8,0 17,9 20,20c3,14 14,20 31,20c18,0 30,8 38,24c17,38 4,56 -40,56c-38,0 -40,-2 -46,-37zm64,2c0,-15 -26,-32 -36,-23c-2,3 -2,13 2,22c8,20 34,21 34,1z"/>
   <path id="svg_3" d="m445,693c-3,-21 -9,-48 -12,-60c-4,-16 -1,-23 10,-23c9,0 17,11 20,28l4,27l2,-27c1,-36 26,-36 46,0l15,27l-6,-27c-5,-21 -2,-28 9,-28c9,0 17,14 22,38c3,20 9,47 12,60c4,17 1,22 -16,22c-14,0 -26,-12 -38,-37l-17,-38l-4,38c-2,28 -8,37 -21,37c-14,0 -21,-10 -26,-37z"/>
   <path id="svg_4" d="m129,684c-11,-13 -9,-14 17,-8c20,4 26,3 19,-4c-5,-5 -19,-12 -30,-14c-31,-5 -26,-43 5,-45c14,0 31,-1 38,-2c6,-1 12,-10 12,-21c0,-11 5,-20 10,-20c6,0 10,10 10,23c0,18 5,23 27,22c21,0 30,7 37,26c13,39 2,59 -34,59c-27,0 -30,-4 -36,-40c-4,-22 -10,-40 -14,-40c-5,0 -6,18 -3,40c5,37 4,40 -19,40c-14,0 -31,-7 -39,-16zm129,-26c-4,-29 -38,-38 -38,-10c0,22 8,32 27,32c9,0 13,-8 11,-22zm-93,-18c-3,-5 -13,-10 -21,-10c-8,0 -12,5 -9,10c3,6 13,10 21,10c8,0 12,-4 9,-10z"/>
   <path id="svg_5" d="m306,684c-10,-9 -16,-28 -14,-43c2,-21 8,-26 32,-26c16,0 31,6 34,13c3,9 -3,11 -22,6c-16,-4 -26,-2 -26,5c0,6 14,11 31,11c26,0 30,3 27,23c-4,28 -39,34 -62,11zm44,-14c0,-5 -9,-10 -21,-10c-11,0 -17,5 -14,10c3,6 13,10 21,10c8,0 14,-4 14,-10z"/>
   <path id="svg_6" d="m390,693c0,-5 -4,-25 -9,-45c-5,-22 -5,-38 0,-38c5,0 12,12 15,28c4,15 16,35 28,44l21,18l-27,0c-16,0 -28,-3 -28,-7z"/>
   <path id="svg_7" d="m579,684c-11,-13 -9,-14 17,-8c20,4 26,3 19,-4c-5,-5 -19,-12 -30,-14c-12,-2 -20,-11 -20,-23c0,-16 7,-20 35,-21c35,-2 35,-1 38,42c3,41 1,44 -21,44c-14,0 -30,-7 -38,-16zm36,-44c-3,-5 -13,-10 -21,-10c-8,0 -12,5 -9,10c3,6 13,10 21,10c8,0 12,-4 9,-10z"/>
   <path id="svg_8" d="m660,685c0,-7 -3,-27 -6,-44c-4,-20 -3,-31 5,-31c6,0 11,9 11,19c0,31 11,51 27,51c12,0 14,-8 10,-35c-3,-19 -2,-35 3,-35c11,0 24,65 16,79c-9,14 -66,10 -66,-4z"/>
   <path id="svg_9" d="m757,694c-15,-16 -6,-24 21,-18c18,5 24,3 17,-4c-5,-5 -19,-12 -30,-14c-11,-2 -21,-13 -23,-25c-3,-19 1,-22 35,-21c38,0 38,1 38,42c0,36 -3,41 -25,44c-14,2 -29,0 -33,-4zm29,-59c-21,-16 -32,-13 -21,4c3,6 14,11 23,11c15,-1 15,-2 -2,-15z"/>
   <path id="svg_10" d="m841,686c-7,-8 -11,-27 -9,-43c2,-22 8,-28 26,-27c12,0 21,-4 19,-10c-2,-6 -16,-10 -31,-9c-32,2 -31,-20 2,-25c26,-4 48,28 57,83c6,39 5,41 -23,43c-16,1 -35,-4 -41,-12zm49,-15c0,-23 -14,-41 -31,-41c-20,0 -23,8 -13,34c6,17 44,23 44,7z"/>
   <path id="svg_11" d="m931,681c-14,-25 -14,-58 0,-66c14,-9 59,3 59,15c0,6 -11,8 -25,4c-15,-4 -25,-2 -25,5c0,6 14,11 31,11c26,0 30,3 27,23c-4,30 -52,37 -67,8zm49,-11c0,-5 -9,-10 -21,-10c-11,0 -17,5 -14,10c3,6 13,10 21,10c8,0 14,-4 14,-10z"/>
   <path id="svg_12" d="m1017,683c-14,-51 -16,-73 -8,-73c5,0 12,14 16,31c4,17 13,33 21,36c21,8 17,23 -5,23c-11,0 -22,-8 -24,-17z"/>
   <path id="svg_13" d="m17,593c18,-2 48,-2 66,0c17,2 3,4 -33,4c-36,0 -50,-2 -33,-4z"/>
   <path id="svg_14" d="m453,593c20,-2 54,-2 75,0c20,2 3,4 -38,4c-41,0 -58,-2 -37,-4z"/>
  </g>
 </g>
</svg>